<svg xmlns="http://www.w3.org/2000/svg" xmlns:xlink="http://www.w3.org/1999/xlink" width="512"
    zoomAndPan="magnify" viewBox="68 68 250 250" height="512"
    preserveAspectRatio="xMidYMid meet" version="1.2">
    <g id="470f6e16b7">
        <g clip-rule="nonzero" clip-path="url(#06f8fafee7)">
            <path style=" stroke:none;fill-rule:nonzero;fill:#ffffff;fill-opacity:1;"
                d="M 305.160156 279.523438 C 305.140625 279.507812 305.121094 279.488281 305.101562 279.46875 L 214.503906 191.664062 L 284.359375 119.582031 C 290.382812 118.960938 296.449219 115.945312 301.296875 111.097656 C 305.855469 106.539062 308.828125 100.859375 309.667969 95.101562 C 310.578125 88.867188 308.832031 83.027344 304.886719 79.085938 C 301.644531 75.84375 297.109375 74.058594 292.109375 74.058594 C 285.347656 74.058594 278.335938 77.195312 272.863281 82.664062 C 267.976562 87.554688 264.964844 93.644531 264.371094 99.707031 L 191.996094 169.847656 L 119.621094 99.707031 C 119.027344 93.648438 116.011719 87.554688 111.125 82.664062 C 106.566406 78.109375 100.886719 75.136719 95.132812 74.296875 C 88.890625 73.390625 83.050781 75.132812 79.109375 79.082031 C 75.15625 83.027344 73.410156 88.867188 74.320312 95.101562 C 75.160156 100.859375 78.132812 106.539062 82.691406 111.097656 C 87.554688 115.960938 93.605469 118.96875 99.632812 119.585938 L 169.484375 191.664062 L 78.886719 279.46875 C 78.867188 279.484375 78.847656 279.503906 78.828125 279.523438 C 75.554688 282.796875 73.875 287.238281 74.101562 292.019531 C 74.316406 296.617188 76.289062 300.996094 79.648438 304.355469 C 83.1875 307.898438 87.988281 309.929688 92.824219 309.929688 C 97.285156 309.929688 101.425781 308.246094 104.488281 305.1875 C 104.507812 305.167969 104.527344 305.148438 104.542969 305.125 L 191.996094 214.890625 L 279.445312 305.125 C 279.464844 305.144531 279.484375 305.167969 279.5 305.1875 C 282.582031 308.265625 286.6875 309.933594 291.144531 309.933594 C 291.429688 309.933594 291.714844 309.925781 292 309.910156 C 296.597656 309.691406 300.980469 307.71875 304.339844 304.359375 C 307.699219 300.996094 309.671875 296.617188 309.890625 292.019531 C 310.117188 287.238281 308.4375 282.800781 305.160156 279.523438 Z M 106.65625 111.71875 C 105.710938 110.160156 104.011719 109.1875 102.15625 109.1875 C 102.082031 109.1875 102.007812 109.1875 101.933594 109.1875 C 98 109.1875 93.597656 107.128906 90.128906 103.660156 C 87.203125 100.734375 85.234375 97.0625 84.726562 93.585938 C 84.476562 91.875 84.378906 88.679688 86.542969 86.519531 C 88.703125 84.359375 91.898438 84.457031 93.613281 84.703125 C 97.09375 85.210938 100.765625 87.179688 103.6875 90.101562 C 107.199219 93.617188 109.265625 98.085938 109.210938 102.0625 C 109.183594 103.765625 110 105.324219 111.324219 106.3125 L 184.4375 177.171875 L 177.035156 184.34375 Z M 97.027344 297.773438 C 95.652344 299.128906 93.984375 299.414062 92.824219 299.414062 C 90.757812 299.414062 88.667969 298.507812 87.085938 296.921875 C 85.578125 295.417969 84.699219 293.5 84.605469 291.523438 C 84.519531 289.75 85.101562 288.136719 86.238281 286.984375 L 272.503906 106.464844 C 273.933594 105.484375 274.804688 103.839844 274.78125 102.0625 C 274.722656 98.085938 276.789062 93.613281 280.300781 90.101562 C 283.761719 86.640625 288.175781 84.574219 292.109375 84.574219 C 293.65625 84.574219 295.839844 84.910156 297.449219 86.523438 C 299.609375 88.679688 299.511719 91.875 299.261719 93.585938 C 298.753906 97.0625 296.785156 100.734375 293.863281 103.660156 C 290.402344 107.121094 285.984375 109.1875 282.046875 109.1875 L 281.902344 109.1875 C 281.878906 109.183594 281.855469 109.183594 281.832031 109.183594 C 279.976562 109.183594 278.277344 110.160156 277.332031 111.71875 Z M 299.382812 291.523438 C 299.292969 293.5 298.410156 295.417969 296.902344 296.925781 C 295.394531 298.429688 293.476562 299.3125 291.5 299.40625 C 289.730469 299.492188 288.117188 298.914062 286.964844 297.773438 L 199.316406 207.332031 L 207.1875 199.214844 L 297.75 286.984375 C 298.886719 288.136719 299.46875 289.75 299.382812 291.523438 Z M 299.382812 291.523438 " />
        </g>
    </g>
</svg>
