<svg width="230" height="128" viewBox="0 0 230 128" fill="none" xmlns="http://www.w3.org/2000/svg">
<g clip-path="url(#clip0_271_2076)">
<path d="M45.8638 40.6928C45.6766 41.301 45.4733 41.8931 45.238 42.4746C44.2138 45.0308 42.733 47.3806 40.8677 49.4096C40.2493 50.0787 39.5939 50.7128 38.9045 51.3088C38.8066 53.9071 38.2035 56.4617 37.1286 58.8307C36.0257 61.2581 34.2207 63.3015 31.9452 64.6988C29.5403 66.0388 26.8314 66.7422 24.0766 66.7422C21.3218 66.7422 18.6129 66.0388 16.2079 64.6988C13.9283 63.2972 12.1141 61.2559 10.9925 58.8307C9.89422 56.4682 9.27956 53.911 9.18446 51.3088C6.3895 48.9104 4.21675 45.8742 2.85102 42.4586C2.62101 41.8878 2.41774 41.3063 2.24122 40.7195C1.29692 43.6215 0.832598 46.6575 0.866475 49.7084C0.866475 54.5416 1.85429 58.7809 3.82992 62.4262C5.69933 65.9767 8.52907 68.9337 11.9981 70.9617C15.6496 73.0472 19.8 74.1055 24.0071 74.0238C28.2688 74.1154 32.4765 73.0595 36.1872 70.967C39.6646 68.9564 42.4917 65.9944 44.334 62.4316C46.2525 58.7827 47.2136 54.5434 47.2172 49.7137C47.2493 46.6542 46.7925 43.609 45.8638 40.6928Z" fill="#6442ff"/>
<path d="M46.3827 34.4086C46.1174 35.713 45.7361 36.9913 45.2433 38.2282C43.5524 42.4566 40.6287 46.0821 36.8502 48.6362C33.0716 51.1903 28.6119 52.5555 24.0472 52.5555C19.4825 52.5555 15.0227 51.1903 11.2442 48.6362C7.46563 46.0821 4.54198 42.4566 2.85103 38.2282C2.35535 36.9882 1.97223 35.7063 1.70631 34.3979C1.69083 34.3179 1.69288 34.2355 1.71232 34.1563C1.73175 34.0772 1.76812 34.0031 1.81892 33.9393C1.86973 33.8755 1.93377 33.8233 2.00666 33.7865C2.07955 33.7496 2.15957 33.7289 2.24123 33.7258H45.8317C45.9159 33.7263 45.9988 33.7455 46.0746 33.782C46.1504 33.8185 46.217 33.8713 46.2698 33.9367C46.3225 34.0021 46.36 34.0784 46.3796 34.16C46.3991 34.2416 46.4002 34.3265 46.3827 34.4086Z" fill="#6442ff"/>
<path d="M46.5058 9.89046V30.2369C46.5058 30.5198 46.3931 30.7912 46.1924 30.9913C45.9918 31.1914 45.7197 31.3038 45.4359 31.3038H2.61036C2.32663 31.3038 2.05451 31.1914 1.85387 30.9913C1.65324 30.7912 1.54053 30.5198 1.54053 30.2369V9.81044C1.54305 9.37144 1.68334 8.94424 1.94172 8.58881C3.42344 6.54563 9.2701 0 23.408 0C37.5459 0 44.1842 6.46561 45.9709 8.53546C46.3104 8.90601 46.5009 9.38851 46.5058 9.89046Z" fill="#6442ff"/>
<path d="M37.8294 80.2387L24.0927 92.3324L10.0297 80.2387H1.17676V127.386H8.66562L8.794 92.3431L21.1667 100.617H27.024L39.3967 92.279L39.2683 127.386H46.7572V80.2387H37.8294Z" fill="#6442ff"/>
<path d="M13.3141 105.109H33.5019L33.5928 107.856H13.2231L13.3141 105.109Z" fill="#6442ff"/>
<path d="M14.4694 113.138H32.5603L32.6406 115.885H14.3892L14.4694 113.138Z" fill="#6442ff"/>
<path d="M16.2722 121.172H31.9132L31.9827 123.919H16.1973L16.2722 121.172Z" fill="#6442ff"/>
<path d="M15.6356 108.032C15.6528 108.231 15.6284 108.431 15.5639 108.62C15.4994 108.809 15.3962 108.983 15.261 109.13C15.1257 109.277 14.9612 109.394 14.778 109.475C14.5948 109.555 14.3968 109.596 14.1967 109.596C13.9966 109.596 13.7986 109.555 13.6154 109.475C13.4322 109.394 13.2677 109.277 13.1324 109.13C12.9971 108.983 12.894 108.809 12.8295 108.62C12.765 108.431 12.7405 108.231 12.7578 108.032C12.3672 108 12.0031 107.822 11.7377 107.535C11.4723 107.247 11.325 106.871 11.325 106.48C11.325 106.089 11.4723 105.713 11.7377 105.425C12.0031 105.137 12.3672 104.96 12.7578 104.928C12.7796 104.648 12.8826 104.381 13.0543 104.16C13.2259 103.938 13.4586 103.771 13.724 103.679C13.9894 103.587 14.2759 103.574 14.5484 103.642C14.8209 103.71 15.0675 103.856 15.2582 104.062C15.4489 104.268 15.5753 104.524 15.6219 104.8C15.6685 105.077 15.6334 105.361 15.5207 105.617C15.408 105.874 15.2228 106.092 14.9876 106.245C14.7525 106.399 14.4776 106.48 14.1967 106.48C14.5935 106.497 14.9676 106.669 15.2373 106.96C15.5069 107.251 15.6501 107.636 15.6356 108.032Z" fill="#6442ff"/>
<path d="M16.1974 116.066C16.2094 116.262 16.1811 116.458 16.1143 116.642C16.0476 116.826 15.9437 116.994 15.8092 117.137C15.6746 117.28 15.5122 117.393 15.332 117.471C15.1518 117.549 14.9575 117.589 14.7611 117.589C14.5648 117.589 14.3705 117.549 14.1903 117.471C14.0101 117.393 13.8477 117.28 13.7131 117.137C13.5786 116.994 13.4747 116.826 13.408 116.642C13.3412 116.458 13.3129 116.262 13.3249 116.066C12.9343 116.034 12.5702 115.856 12.3048 115.569C12.0394 115.281 11.8921 114.905 11.8921 114.514C11.8921 114.123 12.0394 113.746 12.3048 113.459C12.5702 113.171 12.9343 112.994 13.3249 112.961C13.3467 112.683 13.4493 112.418 13.6201 112.197C13.7909 111.976 14.0225 111.81 14.2866 111.718C14.5507 111.627 14.8358 111.614 15.1071 111.681C15.3785 111.748 15.6242 111.893 15.8144 112.098C16.0045 112.302 16.1309 112.557 16.1779 112.832C16.2249 113.107 16.1906 113.39 16.0791 113.645C15.9677 113.901 15.7839 114.119 15.5503 114.272C15.3168 114.426 15.0434 114.508 14.7638 114.509C15.1607 114.527 15.5343 114.701 15.8029 114.992C16.0715 115.284 16.2134 115.67 16.1974 116.066Z" fill="#6442ff"/>
<path d="M18.1229 124.1C18.1401 124.299 18.1157 124.499 18.0512 124.688C17.9867 124.877 17.8835 125.051 17.7482 125.198C17.6129 125.345 17.4484 125.462 17.2652 125.543C17.082 125.623 16.8841 125.665 16.6839 125.665C16.4838 125.665 16.2859 125.623 16.1027 125.543C15.9194 125.462 15.755 125.345 15.6197 125.198C15.4844 125.051 15.3812 124.877 15.3167 124.688C15.2522 124.499 15.2278 124.299 15.245 124.1C14.8472 124.077 14.4734 123.903 14.2001 123.614C13.9267 123.325 13.7744 122.943 13.7744 122.545C13.7744 122.148 13.9267 121.766 14.2001 121.476C14.4734 121.187 14.8472 121.013 15.245 120.99C15.2669 120.711 15.3699 120.444 15.5415 120.222C15.7131 120 15.9459 119.833 16.2113 119.742C16.4766 119.65 16.7631 119.637 17.0356 119.705C17.3081 119.773 17.5548 119.919 17.7455 120.124C17.9362 120.33 18.0625 120.587 18.1092 120.863C18.1558 121.139 18.1206 121.423 18.008 121.68C17.8953 121.937 17.71 122.155 17.4749 122.308C17.2397 122.461 16.9648 122.543 16.6839 122.543C17.0818 122.559 17.4567 122.733 17.7265 123.025C17.9962 123.317 18.1388 123.704 18.1229 124.1Z" fill="#6442ff"/>
<path d="M32.2876 108.032C32.2756 108.228 32.3039 108.424 32.3707 108.608C32.4374 108.792 32.5413 108.96 32.6758 109.103C32.8104 109.246 32.9727 109.359 33.153 109.437C33.3332 109.515 33.5275 109.555 33.7238 109.555C33.9202 109.555 34.1145 109.515 34.2947 109.437C34.4749 109.359 34.6373 109.246 34.7719 109.103C34.9064 108.96 35.0103 108.792 35.077 108.608C35.1438 108.424 35.1721 108.228 35.1601 108.032C35.5507 108 35.9148 107.822 36.1802 107.535C36.4456 107.247 36.5929 106.871 36.5929 106.48C36.5929 106.089 36.4456 105.713 36.1802 105.425C35.9148 105.137 35.5507 104.96 35.1601 104.928C35.1372 104.65 35.0337 104.384 34.8621 104.164C34.6905 103.944 34.4583 103.779 34.1939 103.688C33.9295 103.597 33.6443 103.585 33.3733 103.654C33.1022 103.722 32.857 103.868 32.6675 104.073C32.4781 104.278 32.3527 104.534 32.3067 104.809C32.2607 105.084 32.296 105.366 32.4083 105.621C32.5206 105.877 32.7051 106.094 32.9392 106.246C33.1733 106.399 33.4469 106.48 33.7265 106.48C33.3297 106.497 32.9556 106.669 32.6859 106.96C32.4163 107.251 32.2731 107.636 32.2876 108.032Z" fill="#6442ff"/>
<path d="M31.437 116.066C31.425 116.262 31.4533 116.458 31.5201 116.642C31.5868 116.826 31.6907 116.994 31.8252 117.137C31.9598 117.28 32.1222 117.393 32.3024 117.471C32.4826 117.549 32.6769 117.589 32.8733 117.589C33.0696 117.589 33.2639 117.549 33.4441 117.471C33.6243 117.393 33.7867 117.28 33.9213 117.137C34.0558 116.994 34.1597 116.826 34.2264 116.642C34.2932 116.458 34.3215 116.262 34.3095 116.066C34.7001 116.034 35.0642 115.856 35.3296 115.569C35.595 115.281 35.7423 114.905 35.7423 114.514C35.7423 114.123 35.595 113.746 35.3296 113.459C35.0642 113.171 34.7001 112.994 34.3095 112.961C34.2877 112.683 34.1851 112.418 34.0143 112.197C33.8435 111.976 33.6119 111.81 33.3478 111.718C33.0838 111.627 32.7986 111.614 32.5273 111.681C32.256 111.748 32.0102 111.893 31.82 112.098C31.6299 112.302 31.5036 112.557 31.4565 112.832C31.4095 113.107 31.4438 113.39 31.5553 113.645C31.6667 113.901 31.8505 114.119 32.0841 114.272C32.3177 114.426 32.591 114.508 32.8706 114.509C32.4737 114.527 32.1001 114.701 31.8315 114.992C31.5629 115.284 31.421 115.67 31.437 116.066Z" fill="#6442ff"/>
<path d="M29.5166 124.1C29.5046 124.296 29.5329 124.492 29.5997 124.676C29.6664 124.86 29.7703 125.028 29.9048 125.171C30.0394 125.314 30.2018 125.427 30.382 125.505C30.5622 125.583 30.7565 125.623 30.9528 125.623C31.1492 125.623 31.3435 125.583 31.5237 125.505C31.7039 125.427 31.8663 125.314 32.0009 125.171C32.1354 125.028 32.2393 124.86 32.306 124.676C32.3728 124.492 32.4011 124.296 32.3891 124.1C32.7869 124.077 33.1607 123.903 33.4341 123.614C33.7074 123.325 33.8597 122.943 33.8597 122.545C33.8597 122.148 33.7074 121.766 33.4341 121.476C33.1607 121.187 32.7869 121.013 32.3891 120.99C32.3662 120.712 32.2627 120.447 32.0911 120.227C31.9195 120.007 31.6873 119.841 31.4229 119.751C31.1585 119.66 30.8733 119.648 30.6023 119.716C30.3312 119.785 30.086 119.93 29.8965 120.135C29.7071 120.341 29.5817 120.596 29.5357 120.871C29.4897 121.146 29.525 121.429 29.6373 121.684C29.7496 121.939 29.9341 122.157 30.1682 122.309C30.4023 122.462 30.6759 122.543 30.9555 122.543C30.5577 122.559 30.1828 122.733 29.913 123.025C29.6432 123.317 29.5007 123.704 29.5166 124.1Z" fill="#6442ff"/>
<path d="M56.9419 73.1329V27.2548H73.5244C77.2046 27.2548 80.2483 27.8772 82.6554 29.122C84.9118 30.2231 86.7887 31.9686 88.0474 34.1365C89.2029 36.3219 89.8122 38.7532 89.8234 41.2238C89.8345 43.6944 89.2473 46.1311 88.1116 48.3267C86.8919 50.5257 85.0375 52.3082 82.7892 53.4427C80.3749 54.7301 77.2866 55.3738 73.5244 55.3738H64.8319V73.1383L56.9419 73.1329ZM64.8319 48.9456H73.0483C76.1579 48.9456 78.3921 48.2574 79.7508 46.8811C81.1095 45.5047 81.7853 43.6589 81.7782 41.3437C81.7782 38.936 81.0988 37.0564 79.7401 35.7049C78.3814 34.3535 76.1473 33.676 73.0376 33.6724H64.8319V48.9456Z" fill="#6442ff"/>
<path d="M96.6436 73.1329V27.2548H126.348V33.6137H104.528V46.7904H124.379V53.0159H104.528V66.7793H126.348V73.1383L96.6436 73.1329Z" fill="#6442ff"/>
<path d="M134.628 73.1329V27.2548H142.518L164.691 60.4311V27.2495H172.554V73.1276H164.691L142.54 40.0526V73.1542L134.628 73.1329Z" fill="#6442ff"/>
<path d="M55.1982 127.216L72.0375 81.3003H80.8529L97.6868 127.216H89.3367L76.381 90.4812L63.4199 127.216H55.1982ZM62.6871 116.392L64.7893 110.161H87.4859L89.5882 116.392H62.6871Z" fill="#6442ff"/>
<path d="M104.004 127.216V81.3003H120.512C124.149 81.3003 127.164 81.9227 129.557 83.1674C131.788 84.267 133.641 86.0032 134.88 88.1553C136.019 90.2893 136.617 92.6684 136.624 95.0858C136.63 97.5031 136.044 99.8854 134.917 102.025C133.684 104.208 131.82 105.969 129.568 107.077C127.171 108.343 124.08 108.977 120.292 108.977H111.894V127.21L104.004 127.216ZM111.894 103.14H119.988C122.926 103.14 125.085 102.429 126.465 101.007C127.167 100.255 127.711 99.3718 128.067 98.4082C128.422 97.4447 128.581 96.4201 128.536 95.3945C128.582 94.3924 128.425 93.3913 128.075 92.4509C127.725 91.5106 127.188 90.6502 126.497 89.9211C125.139 88.5377 122.969 87.8477 119.988 87.8513H111.894V103.14ZM128.011 127.216L118.34 106.944H126.899L137.025 127.216H128.011Z" fill="#6442ff"/>
<path d="M165.225 128C160.664 128 156.729 127.006 153.42 125.018C150.118 123.038 147.466 120.143 145.787 116.685C143.944 112.828 143.028 108.596 143.112 104.325C143.112 99.5982 144.003 95.4531 145.787 91.8896C147.482 88.4242 150.146 85.5214 153.457 83.5302C156.77 81.5172 160.705 80.5107 165.263 80.5107C170.74 80.5107 175.212 81.8551 178.679 84.5437C182.145 87.2324 184.338 91.0271 185.258 95.9279H176.55C176.043 93.5245 174.721 91.3689 172.805 89.8251C170.915 88.342 168.373 87.5987 165.177 87.5952C162.539 87.5188 159.935 88.2142 157.688 89.5957C155.543 90.9984 153.866 93.0084 152.874 95.3678C151.695 98.2041 151.125 101.255 151.2 104.325C151.135 107.376 151.722 110.405 152.922 113.212C153.928 115.545 155.603 117.529 157.737 118.915C159.984 120.296 162.587 120.992 165.225 120.915C168.435 120.915 170.978 120.227 172.853 118.851C174.752 117.448 176.081 115.41 176.598 113.111H185.231C184.354 117.734 182.172 121.374 178.684 124.031C175.196 126.688 170.71 128.011 165.225 128Z" fill="#6442ff"/>
<path d="M192.924 127.216V81.3003H200.819V127.216H192.924ZM199.631 107.013V100.612H223.532V107.013H199.631ZM221.996 127.216V81.3003H229.886V127.216H221.996Z" fill="#6442ff"/>
</g>
<defs>
<clipPath id="clip0_271_2076">
<rect width="229.053" height="128" fill="#6442ff" transform="translate(0.864746)"/>
</clipPath>
</defs>
</svg>
